<?xml version="1.0" standalone="no"?>
<!DOCTYPE svg PUBLIC "-//W3C//DTD SVG 20010904//EN"
 "http://www.w3.org/TR/2001/REC-SVG-20010904/DTD/svg10.dtd">
<svg version="1.0" xmlns="http://www.w3.org/2000/svg"
 width="260.000000pt" height="260.000000pt" viewBox="0 0 260.000000 260.000000"
 preserveAspectRatio="xMidYMid meet">
<metadata>
Created by potrace 1.14, written by Peter Selinger 2001-2017
</metadata>
<g transform="translate(0.000000,260.000000) scale(0.100000,-0.100000)"
fill="#000000" stroke="none">
<path d="M1450 1489 c0 -21 -31 -41 -71 -46 -29 -4 -37 -9 -27 -15 9 -7 8 -8
-5 -4 -10 3 -21 6 -23 6 -3 0 -3 3 -1 8 3 4 -16 7 -41 6 -26 0 -59 3 -74 7
-16 4 -28 4 -28 -1 0 -5 -13 -4 -30 1 -16 6 -52 9 -80 7 -27 -1 -50 1 -50 5 0
5 -9 5 -20 2 -11 -3 -20 -3 -20 2 0 4 -28 9 -62 10 -55 1 -70 -3 -143 -42
-103 -55 -167 -82 -281 -114 -49 -14 -91 -30 -93 -36 -4 -16 39 -22 117 -17
51 3 72 2 72 -7 0 -8 5 -9 19 -1 26 13 28 13 34 -9 4 -16 0 -18 -25 -17 -16 1
-33 7 -36 12 -4 6 -27 10 -52 11 l-45 1 35 -10 c19 -5 65 -20 102 -34 37 -14
73 -22 79 -18 7 4 9 3 6 -3 -8 -12 59 -37 74 -27 8 4 9 3 5 -4 -5 -9 6 -12 36
-11 30 2 35 3 16 6 -16 2 -28 11 -28 19 0 18 9 18 45 -4 26 -16 119 -52 134
-52 3 0 0 5 -6 11 -6 6 -9 18 -6 25 3 8 0 14 -6 14 -6 0 -11 -7 -11 -17 0 -18
-15 -8 -15 10 0 7 -8 11 -18 11 -9 -1 -17 3 -17 8 0 6 -7 7 -15 4 -15 -5 -55
12 -55 24 0 9 44 5 60 -5 10 -6 12 -4 7 8 -3 9 -2 19 3 22 6 4 10 1 10 -4 0
-6 7 -11 16 -11 14 0 14 3 4 15 -7 9 -8 15 -2 15 17 0 22 -29 6 -44 -13 -13
-10 -16 22 -22 24 -4 38 -13 41 -25 6 -22 19 -25 26 -6 4 9 8 8 16 -3 8 -12
11 -12 11 -1 0 10 3 11 14 2 10 -9 15 -8 19 3 5 12 13 13 36 6 17 -5 31 -5 31
-1 0 3 12 7 28 8 15 0 19 -1 10 -4 -41 -11 -12 -18 70 -18 143 1 182 -5 182
-25 0 -23 54 -37 75 -20 11 9 15 9 15 1 0 -8 11 -10 34 -6 19 4 67 2 108 -5
106 -16 153 -18 556 -25 l362 -7 0 56 0 56 -392 2 -393 3 -5 35 -6 35 -7 -35
-7 -35 -100 -1 c-55 -1 -100 2 -100 7 0 4 -13 2 -29 -4 -20 -7 -31 -21 -38
-46 l-10 -36 -2 43 c0 23 4 42 9 42 7 0 7 6 0 19 -5 11 -10 35 -10 54 0 30 3
34 20 30 11 -3 27 -23 37 -44 19 -40 33 -50 33 -24 0 8 -4 15 -10 15 -5 0 -10
8 -10 19 0 18 15 19 510 13 416 -4 510 -3 510 8 0 11 -72 12 -390 7 -244 -4
-388 -2 -385 4 4 5 160 9 391 9 l384 0 0 76 0 76 -122 -6 c-68 -3 -244 -8
-393 -10 -200 -3 -236 -2 -140 4 103 6 524 20 633 20 12 0 22 5 22 11 0 6 -11
8 -27 5 -16 -2 -194 -7 -398 -9 -403 -5 -433 -1 -90 13 l220 8 -270 -3 c-148
-2 -271 -4 -272 -5 -1 0 0 -7 3 -15 5 -11 2 -13 -10 -9 -8 3 -14 11 -13 17 1
9 -19 11 -68 8 -38 -2 -73 -5 -77 -8 -5 -2 -8 -43 -8 -90 0 -48 -3 -83 -7 -79
-5 4 -8 38 -8 76 0 76 -20 112 -56 103 -13 -4 -19 0 -19 11 0 10 -9 16 -25 16
-14 0 -25 -5 -25 -11z m345 -39 c3 -5 1 -10 -4 -10 -6 0 -11 5 -11 10 0 6 2
10 4 10 3 0 8 -4 11 -10z m-273 -99 c2 -17 1 -28 -4 -25 -8 5 -12 54 -4 54 2
0 6 -13 8 -29z m-269 -63 c4 -10 7 -10 15 0 14 21 41 4 36 -24 -4 -21 -1 -24
23 -24 26 0 26 1 7 15 -12 9 -14 14 -6 15 7 0 10 5 6 11 -4 8 4 9 27 4 19 -4
37 -9 41 -11 11 -7 -3 -34 -17 -34 -8 0 -11 -8 -8 -20 6 -22 -11 -27 -24 -7
-9 14 -53 19 -53 6 0 -5 -7 -9 -15 -9 -8 0 -15 5 -15 10 0 6 -13 10 -29 10
-17 0 -33 5 -36 10 -3 6 -16 10 -28 10 -17 0 -19 -2 -7 -9 8 -6 18 -7 22 -5 4
3 8 3 8 0 0 -3 -10 -10 -21 -17 -15 -8 -19 -8 -15 0 4 6 2 11 -3 11 -6 0 -11
-6 -11 -12 0 -7 -7 -2 -16 10 -13 19 -19 21 -30 11 -12 -10 -16 -8 -21 9 -3
12 -13 22 -22 23 -9 1 2 7 24 14 53 18 162 19 168 3z m-443 -26 c0 -4 -5 -13
-11 -19 -9 -9 -15 -8 -25 2 -20 19 -17 25 11 25 14 0 25 -4 25 -8z m486 -100
c-3 -5 -18 -7 -33 -4 l-28 6 30 6 c34 7 40 5 31 -8z"/>
<path d="M1186 1277 c3 -10 9 -15 12 -12 3 3 0 11 -7 18 -10 9 -11 8 -5 -6z"/>
<path d="M1260 1261 c0 -5 -8 -12 -17 -14 -14 -4 -13 -5 4 -6 24 -1 39 14 23
24 -5 3 -10 2 -10 -4z"/>
<path d="M1913 1493 c26 -2 67 -2 90 0 23 2 2 3 -48 3 -49 0 -68 -1 -42 -3z"/>
<path d="M2443 1483 c32 -2 81 -2 110 0 29 2 3 3 -58 3 -60 0 -84 -1 -52 -3z"/>
<path d="M2135 1240 c-205 -3 -277 -7 -200 -10 l120 -4 -115 -6 -115 -6 89 -2
c49 -1 86 -5 83 -9 -4 -3 -46 -9 -94 -13 -54 -4 65 -8 305 -9 257 0 392 2 392
9 0 7 -96 9 -279 6 -153 -2 -285 0 -292 5 -11 7 109 16 144 10 4 0 7 4 7 9 0
6 58 10 154 10 93 0 157 4 161 10 4 6 -4 9 -17 8 -13 -2 -167 -5 -343 -8z m-2
-17 c-13 -2 -35 -2 -50 0 -16 2 -5 4 22 4 28 0 40 -2 28 -4z"/>
<path d="M2510 1240 c0 -5 7 -10 15 -10 8 0 15 5 15 10 0 6 -7 10 -15 10 -8 0
-15 -4 -15 -10z"/>
<path d="M2555 1240 c3 -5 15 -10 26 -10 10 0 19 5 19 10 0 6 -12 10 -26 10
-14 0 -23 -4 -19 -10z"/>
<path d="M2203 1213 c9 -2 25 -2 35 0 9 3 1 5 -18 5 -19 0 -27 -2 -17 -5z"/>
<path d="M2328 1213 c7 -3 16 -2 19 1 4 3 -2 6 -13 5 -11 0 -14 -3 -6 -6z"/>
<path d="M2518 1213 c7 -3 16 -2 19 1 4 3 -2 6 -13 5 -11 0 -14 -3 -6 -6z"/>
<path d="M2149 976 c-2 -2 -69 -6 -148 -10 -80 -3 -148 -9 -153 -14 -5 -5 88
-9 214 -10 123 0 294 -4 381 -8 l157 -7 0 27 0 26 -223 0 c-123 0 -226 -2
-228 -4z"/>
<path d="M1798 948 c9 -9 15 -9 24 0 9 9 7 12 -12 12 -19 0 -21 -3 -12 -12z"/>
</g>
</svg>
